<svg viewBox="-190.0000000000001 0 400.0000000000001 415.69219381653085" width="400.0000000000001" height="415.69219381653085" xmlns="http://www.w3.org/2000/svg">
  <path
    stroke="rgba(0,0,0,50%)"
    stroke-width="10"
    fill="none"
    stroke-linejoin="miter"
    stroke-miterlimit="1"
    d="M 0 0 L 20 0 L 30 17.32050807568877 L 10 17.320508075688775 L 3.552713678800501e-15 34.64101615137755 L 20.000000000000004 34.64101615137755 L 40 34.64101615137755 L 50 17.320508075688778 L 70 17.320508075688778 L 80 34.64101615137755 L 90 51.96152422706632 L 70 51.96152422706632 L 59.99999999999999 34.641016151377556 L 50 51.961524227066334 L 60 69.28203230275511 L 50 86.60254037844389 L 30 86.60254037844389 L 10 86.60254037844389 L 20 69.28203230275511 L 40 69.28203230275511 L 29.999999999999993 51.96152422706635 L 9.999999999999993 51.96152422706635 L -3.552713678800501e-15 69.28203230275513 L -20.000000000000004 69.28203230275513 L -10.000000000000002 51.961524227066356 L -20.00000000000001 34.641016151377585 L -30.000000000000007 51.96152422706636 L -40 69.28203230275514 L -30 86.6025403784439 L -10 86.6025403784439 L 1.7763568394002505e-15 103.92304845413267 L -20 103.92304845413267 L -29.999999999999996 121.24355652982145 L -9.999999999999996 121.24355652982145 L 10.000000000000004 121.24355652982145 L 20.000000000000007 103.92304845413267 L 40.00000000000001 103.92304845413267 L 50.00000000000001 121.24355652982143 L 30.000000000000007 121.24355652982143 L 20.00000000000001 138.5640646055102 L 40.000000000000014 138.5640646055102 L 60.000000000000014 138.5640646055102 L 70.00000000000001 121.24355652982143 L 60.000000000000014 103.92304845413265 L 70.00000000000001 86.60254037844388 L 80.00000000000001 69.28203230275511 L 90.00000000000001 86.60254037844388 L 80.00000000000001 103.92304845413265 L 100.00000000000001 103.92304845413265 L 110.00000000000001 86.60254037844388 L 130 86.60254037844388 L 140 103.92304845413264 L 120 103.92304845413264 L 110 121.24355652982142 L 130 121.24355652982142 L 150 121.24355652982142 L 160 103.92304845413264 L 180 103.92304845413264 L 190 121.2435565298214 L 200 138.56406460551017 L 180 138.56406460551017 L 170 121.2435565298214 L 160 138.56406460551017 L 170 155.88457268119893 L 190 155.88457268119893 L 200 173.2050807568877 L 210 190.52558883257646 L 190 190.52558883257646 L 180 173.2050807568877 L 170 190.52558883257646 L 180 207.84609690826522 L 170 225.166604983954 L 150 225.166604983954 L 130 225.166604983954 L 140 207.84609690826522 L 160 207.84609690826522 L 150 190.52558883257646 L 130 190.52558883257646 L 119.99999999999999 173.2050807568877 L 130 155.88457268119893 L 140 173.2050807568877 L 160 173.2050807568877 L 150 155.88457268119893 L 140 138.56406460551017 L 120 138.56406460551017 L 110 155.88457268119893 L 90 155.88457268119893 L 100 138.56406460551017 L 89.99999999999999 121.2435565298214 L 79.99999999999999 138.56406460551017 L 69.99999999999999 155.88457268119893 L 79.99999999999999 173.2050807568877 L 99.99999999999999 173.2050807568877 L 109.99999999999999 190.52558883257646 L 119.99999999999999 207.84609690826522 L 99.99999999999999 207.84609690826522 L 89.99999999999997 190.52558883257646 L 79.99999999999997 207.84609690826522 L 89.99999999999997 225.166604983954 L 79.99999999999997 242.48711305964275 L 59.99999999999997 242.48711305964275 L 69.99999999999997 225.166604983954 L 59.999999999999964 207.84609690826522 L 49.99999999999997 225.166604983954 L 39.99999999999997 242.48711305964275 L 49.99999999999997 259.80762113533154 L 39.99999999999997 277.12812921102034 L 19.99999999999997 277.12812921102034 L -2.842170943040401e-14 277.12812921102034 L 9.999999999999973 259.80762113533154 L 29.99999999999997 259.80762113533154 L 19.999999999999964 242.48711305964278 L -3.552713678800501e-14 242.48711305964278 L -10.000000000000032 259.80762113533154 L -30.000000000000032 259.80762113533154 L -50.00000000000003 259.80762113533154 L -40.00000000000003 242.48711305964278 L -20.00000000000003 242.48711305964278 L -30.000000000000036 225.16660498395402 L -50.000000000000036 225.16660498395402 L -60.00000000000004 207.84609690826525 L -50.00000000000004 190.5255888325765 L -40.00000000000004 173.20508075688772 L -30.00000000000005 190.5255888325765 L -40.000000000000036 207.84609690826528 L -20.000000000000036 207.84609690826528 L -10.000000000000034 190.52558883257652 L 9.999999999999966 190.52558883257652 L 19.99999999999996 207.84609690826528 L -3.907985046680551e-14 207.84609690826528 L -10.000000000000023 225.16660498395407 L 9.999999999999977 225.16660498395407 L 29.99999999999998 225.16660498395407 L 39.99999999999998 207.8460969082653 L 29.99999999999997 190.52558883257655 L 39.99999999999997 173.20508075688778 L 49.999999999999964 190.52558883257655 L 69.99999999999997 190.52558883257655 L 59.999999999999964 173.20508075688778 L 49.99999999999996 155.88457268119902 L 29.999999999999957 155.88457268119902 L 19.99999999999996 173.20508075688778 L -3.907985046680551e-14 173.20508075688778 L -20.00000000000004 173.20508075688778 L -10.000000000000037 155.88457268119902 L 9.999999999999963 155.88457268119902 L -4.618527782440651e-14 138.56406460551025 L -20.000000000000046 138.56406460551025 L -30.000000000000043 155.88457268119902 L -50.00000000000004 155.88457268119902 L -40.00000000000004 138.56406460551025 L -50.00000000000005 121.24355652982149 L -60.00000000000004 138.56406460551025 L -70.00000000000004 155.88457268119902 L -60.00000000000004 173.20508075688778 L -70.00000000000004 190.52558883257655 L -90.00000000000004 190.52558883257655 L -110.00000000000004 190.52558883257655 L -100.00000000000004 173.20508075688778 L -80.00000000000004 173.20508075688778 L -90.00000000000006 155.88457268119902 L -110.00000000000006 155.88457268119902 L -120.00000000000007 138.56406460551025 L -110.00000000000007 121.24355652982149 L -100.00000000000007 103.92304845413273 L -90.00000000000007 121.2435565298215 L -100.00000000000006 138.56406460551028 L -80.00000000000006 138.56406460551028 L -70.00000000000006 121.24355652982152 L -80.00000000000007 103.92304845413275 L -70.00000000000007 86.60254037844399 L -60.00000000000008 103.92304845413277 L -40.00000000000008 103.92304845413277 L -50.000000000000085 86.602540378444 L -60.00000000000009 69.28203230275524 L -80.00000000000009 69.28203230275524 L -90.00000000000009 86.60254037844402 L -110.00000000000009 86.60254037844402 L -100.00000000000009 69.28203230275525 L -110.0000000000001 51.96152422706649 L -120.0000000000001 69.28203230275527 L -130.00000000000009 86.60254037844405 L -120.00000000000009 103.92304845413281 L -130.00000000000009 121.24355652982159 L -150.00000000000009 121.24355652982159 L -140.00000000000009 103.92304845413281 L -150.00000000000009 86.60254037844405 L -160.00000000000009 103.92304845413283 L -170.00000000000009 121.2435565298216 L -160.00000000000009 138.56406460551037 L -140.00000000000009 138.56406460551037 L -130.00000000000009 155.88457268119913 L -120.00000000000009 173.2050807568879 L -140.00000000000009 173.2050807568879 L -150.00000000000009 155.88457268119913 L -160.00000000000009 173.2050807568879 L -150.00000000000009 190.52558883257666 L -130.00000000000009 190.52558883257666 L -120.00000000000009 207.84609690826542 L -140.00000000000009 207.84609690826542 L -150.00000000000009 225.1666049839542 L -130.00000000000009 225.1666049839542 L -110.00000000000009 225.1666049839542 L -100.00000000000009 207.84609690826542 L -80.00000000000009 207.84609690826542 L -70.00000000000009 225.1666049839542 L -60.000000000000085 242.48711305964295 L -80.00000000000009 242.48711305964295 L -90.0000000000001 225.1666049839542 L -100.0000000000001 242.48711305964295 L -90.0000000000001 259.8076211353317 L -100.0000000000001 277.1281292110205 L -120.0000000000001 277.1281292110205 L -140.0000000000001 277.1281292110205 L -130.0000000000001 259.8076211353317 L -110.00000000000011 259.8076211353317 L -120.00000000000013 242.48711305964295 L -140.0000000000001 242.48711305964295 L -150.0000000000001 259.8076211353317 L -170.0000000000001 259.8076211353317 L -160.0000000000001 242.48711305964295 L -170.0000000000001 225.1666049839542 L -180.0000000000001 242.48711305964295 L -190.0000000000001 259.8076211353317 L -180.0000000000001 277.1281292110205 L -160.0000000000001 277.1281292110205 L -150.0000000000001 294.4486372867093 L -170.0000000000001 294.4486372867093 L -180.0000000000001 311.7691453623981 L -160.0000000000001 311.7691453623981 L -140.0000000000001 311.7691453623981 L -130.0000000000001 294.4486372867093 L -110.00000000000011 294.4486372867093 L -100.00000000000011 311.7691453623981 L -120.00000000000011 311.7691453623981 L -130.0000000000001 329.0896534380869 L -110.00000000000011 329.0896534380869 L -90.00000000000011 329.0896534380869 L -80.00000000000011 311.7691453623981 L -90.00000000000011 294.4486372867093 L -80.00000000000011 277.1281292110205 L -70.00000000000011 259.8076211353317 L -60.000000000000114 277.1281292110205 L -70.00000000000011 294.4486372867093 L -50.000000000000114 294.4486372867093 L -40.000000000000114 277.1281292110205 L -20.000000000000114 277.1281292110205 L -10.000000000000112 294.4486372867093 L -30.000000000000114 294.4486372867093 L -40.000000000000114 311.7691453623981 L -20.000000000000114 311.7691453623981 L -1.1368683772161603e-13 311.7691453623981 L 9.999999999999888 294.4486372867093 L 29.999999999999886 294.4486372867093 L 39.999999999999886 311.7691453623981 L 49.999999999999886 329.0896534380869 L 29.999999999999886 329.0896534380869 L 19.99999999999988 311.7691453623981 L 9.999999999999883 329.0896534380869 L 19.999999999999886 346.4101615137757 L 9.99999999999989 363.73066958946447 L -10.00000000000011 363.73066958946447 L -30.00000000000011 363.73066958946447 L -20.000000000000107 346.4101615137757 L -1.0658141036401503e-13 346.4101615137757 L -10.000000000000115 329.0896534380869 L -30.000000000000114 329.0896534380869 L -40.000000000000114 346.4101615137757 L -60.000000000000114 346.4101615137757 L -50.000000000000114 329.0896534380869 L -60.00000000000012 311.7691453623981 L -70.00000000000011 329.0896534380869 L -80.00000000000011 346.4101615137757 L -70.00000000000011 363.73066958946447 L -50.000000000000114 363.73066958946447 L -40.000000000000114 381.05117766515326 L -60.000000000000114 381.05117766515326 L -70.00000000000011 398.37168574084205 L -50.000000000000114 398.37168574084205 L -30.000000000000114 398.37168574084205 L -20.000000000000114 381.05117766515326 L -1.1368683772161603e-13 381.05117766515326 L 9.999999999999888 398.37168574084205 L -10.000000000000112 398.37168574084205 L -20.000000000000107 415.69219381653085 L -1.0658141036401503e-13 415.69219381653085 L 19.999999999999893 415.69219381653085 L 29.999999999999893 398.37168574084205 L 19.999999999999897 381.05117766515326 L 29.9999999999999 363.73066958946447 L 39.9999999999999 346.4101615137757 L 49.9999999999999 363.73066958946447 L 39.9999999999999 381.05117766515326 L 59.9999999999999 381.05117766515326 L 69.9999999999999 363.73066958946447 L 59.9999999999999 346.4101615137757 L 69.9999999999999 329.0896534380869 L 79.9999999999999 346.4101615137757 L 99.9999999999999 346.4101615137757 L 89.9999999999999 329.0896534380869 L 79.9999999999999 311.7691453623981 L 59.9999999999999 311.7691453623981 L 49.9999999999999 294.4486372867093 L 59.9999999999999 277.1281292110205 L 69.9999999999999 259.8076211353317 L 79.9999999999999 277.1281292110205 L 69.9999999999999 294.4486372867093 L 89.9999999999999 294.4486372867093 L 99.9999999999999 277.1281292110205 L 89.9999999999999 259.8076211353317 L 99.9999999999999 242.48711305964295 L 109.9999999999999 225.1666049839542 L 119.9999999999999 242.48711305964295 L 109.9999999999999 259.8076211353317 L 129.9999999999999 259.8076211353317 L 139.9999999999999 242.48711305964295 L 159.9999999999999 242.48711305964295 L 169.9999999999999 259.8076211353317 L 179.9999999999999 277.1281292110205 L 159.9999999999999 277.1281292110205 L 149.9999999999999 259.8076211353317 L 139.9999999999999 277.1281292110205 L 149.9999999999999 294.4486372867093 L 139.9999999999999 311.7691453623981 L 119.99999999999989 311.7691453623981 L 129.9999999999999 294.4486372867093 L 119.99999999999987 277.1281292110205 L 109.99999999999987 294.4486372867093 L 99.99999999999987 311.7691453623981 L 109.99999999999987 329.0896534380869 L 129.9999999999999 329.0896534380869 L 139.9999999999999 346.4101615137757 L 119.99999999999989 346.4101615137757 L 109.99999999999989 363.73066958946447 L 129.9999999999999 363.73066958946447 L 149.9999999999999 363.73066958946447 L 159.9999999999999 346.4101615137757 L 149.9999999999999 329.0896534380869 L 159.9999999999999 311.7691453623981 L 169.9999999999999 294.4486372867093 L 179.9999999999999 311.7691453623981 L 169.9999999999999 329.0896534380869 L 189.9999999999999 329.0896534380869 L 199.9999999999999 311.7691453623981" />
</svg>
